<?xml version="1.0" encoding="UTF-8" standalone="no"?>
<svg
   width="100px"
   height="100px"
   viewBox="0 0 100 100"
   version="1.1"
   id="svg18"
   sodipodi:docname="icon.svg"
   inkscape:version="1.1.2 (0a00cf5339, 2022-02-04)"
   xmlns:inkscape="http://www.inkscape.org/namespaces/inkscape"
   xmlns:sodipodi="http://sodipodi.sourceforge.net/DTD/sodipodi-0.dtd"
   xmlns:xlink="http://www.w3.org/1999/xlink"
   xmlns="http://www.w3.org/2000/svg"
   xmlns:svg="http://www.w3.org/2000/svg"
   xmlns:rdf="http://www.w3.org/1999/02/22-rdf-syntax-ns#"
   xmlns:cc="http://creativecommons.org/ns#"
   xmlns:dc="http://purl.org/dc/elements/1.1/">
  <metadata
     id="metadata22">
    <rdf:RDF>
      <cc:Work
         rdf:about="">
        <dc:format>image/svg+xml</dc:format>
        <dc:type
           rdf:resource="http://purl.org/dc/dcmitype/StillImage" />
        <dc:title>eclispe-che</dc:title>
      </cc:Work>
    </rdf:RDF>
  </metadata>
  <sodipodi:namedview
     pagecolor="#ffffff"
     bordercolor="#666666"
     borderopacity="1"
     objecttolerance="10"
     gridtolerance="10"
     guidetolerance="10"
     inkscape:pageopacity="0"
     inkscape:pageshadow="2"
     inkscape:window-width="1920"
     inkscape:window-height="1043"
     id="namedview20"
     showgrid="false"
     inkscape:pagecheckerboard="true"
     inkscape:zoom="4.72"
     inkscape:cx="5.0847458"
     inkscape:cy="48.940678"
     inkscape:window-x="4480"
     inkscape:window-y="0"
     inkscape:window-maximized="1"
     inkscape:current-layer="layer2" />
  <!-- Generator: Sketch 45.2 (43514) - http://www.bohemiancoding.com/sketch -->
  <title
     id="title2">eclispe-che</title>
  <desc
     id="desc4">Created with Sketch.</desc>
  <defs
     id="defs7">
    <path
       d="M50.0004412,4.04252804e-14 C22.3871247,4.04252804e-14 0,22.3848726 0,49.9995588 C0,77.6133626 22.3871247,100 50.0004412,100 C77.6137577,100 100,77.6133626 100,49.9995588 C100,22.3848726 77.6128753,3.55271368e-14 50.0004412,4.04252804e-14 Z"
       id="path-1" />
  </defs>
  <g
     inkscape:groupmode="layer"
     id="layer1"
     inkscape:label="BACKGROUND">
    <g
       style="fill:#cccccc;fill-opacity:1;fill-rule:evenodd;stroke:none;stroke-width:1;stroke-opacity:1"
       id="Page-1">
      <g
         id="eclispe-che"
         style="fill:#cccccc;fill-opacity:1;stroke:none;stroke-opacity:1">
        <g
           id="path3023-path"
           style="fill:#cccccc;fill-opacity:1;stroke:none;stroke-opacity:1">
          <use
             xlink:href="#path-1"
             id="use9"
             style="fill:#cccccc;fill-opacity:1;fill-rule:evenodd;stroke:none;stroke-opacity:1"
             x="0"
             y="0"
             width="100%"
             height="100%" />
          <path
             d="M 50.000441,0.5 C 22.662621,0.5 0.5,22.661661 0.5,49.999559 0.5,77.337051 22.663098,99.5 50.000441,99.5 77.337613,99.5 99.5,77.337222 99.5,49.999559 99.5,22.661796 77.337514,0.5 50.000441,0.5 Z"
             id="path11"
             style="fill:#cccccc;fill-opacity:1;stroke:none;stroke-width:1;stroke-opacity:1"
             inkscape:connector-curvature="0" />
        </g>
      </g>
    </g>
  </g>
  <g
     inkscape:groupmode="layer"
     id="layer2"
     inkscape:label="PLACE LOGO HERE">
    <g
       style="fill:none"
       id="g179"
       transform="matrix(0.5126927,0,0,0.5126927,21.399438,18.955122)">
      <path
         d="m 49.7204,45.9228 -5.5059,-9.6895 5.5059,-9.6895 h 10.9739 l 5.5059,9.6895 -5.5059,9.6895 z"
         fill="#e83030"
         stroke="#141a1f"
         stroke-width="2.77077"
         id="path149" />
      <path
         d="m 49.7204,69.3671 -5.5059,-9.6894 5.5059,-9.6895 h 10.9739 l 5.5059,9.6895 -5.5059,9.6894 z"
         fill="#6b91c7"
         stroke="#141a1f"
         stroke-width="2.77077"
         id="path151" />
      <path
         d="M 49.7204,22.4775 44.2145,12.788 49.7204,3.09851 h 10.9739 l 5.5059,9.68949 -5.5059,9.6895 z"
         fill="#f9c31f"
         stroke="#141a1f"
         stroke-width="2.77077"
         id="path153" />
      <path
         d="m 70.0603,57.6439 -5.5059,-9.6895 5.5059,-9.6895 h 10.9738 l 5.5059,9.6895 -5.5059,9.6895 z"
         fill="#795aa5"
         stroke="#141a1f"
         stroke-width="2.77077"
         id="path155" />
      <path
         d="m 70.0603,34.1992 -5.5059,-9.6895 5.5059,-9.6895 h 10.9738 l 5.5059,9.6895 -5.5059,9.6895 z"
         fill="#f17423"
         stroke="#141a1f"
         stroke-width="2.77077"
         id="path157" />
      <path
         d="M 29.3571,57.6435 23.8512,47.954 29.3571,38.2645 H 40.331 l 5.5059,9.6895 -5.5059,9.6895 z"
         fill="#97c639"
         stroke="#141a1f"
         stroke-width="2.77077"
         id="path159" />
      <path
         d="m 29.3571,34.1992 -5.5059,-9.6895 5.5059,-9.6895 H 40.331 l 5.5059,9.6895 -5.5059,9.6895 z"
         fill="#c9db70"
         stroke="#141a1f"
         stroke-width="2.77077"
         id="path161" />
      <path
         d="m 10.7836,95.9474 c 1.0261,0.0071 2.0487,0.1244 3.0506,0.35 0.9496,0.2047 1.7523,0.5739 2.5324,0.9641 v 3.0185 c -0.8679,-0.3193 -1.7515,-0.5926 -2.6474,-0.8187 -0.8912,-0.2047 -1.6958,-0.3501 -2.5889,-0.3501 -0.8932,0 -1.75239,0.1454 -2.64741,0.4094 -0.89501,0.264 -1.63929,0.7594 -2.38734,1.4594 -0.68963,0.7 -1.23795,1.578 -1.69583,2.688 -0.40323,1.109 -0.60296,2.483 -0.60296,4.147 0,1.148 0.14321,2.295 0.48991,3.328 0.30996,0.961 0.79793,1.853 1.43769,2.629 0.63311,0.759 1.43768,1.314 2.30255,1.721 0.94966,0.409 2.04249,0.612 3.27859,0.612 0.8913,0 1.7524,-0.057 2.7322,-0.262 0.8977,-0.219 1.7817,-0.492 2.6473,-0.819 v 3.038 c -0.2581,0.145 -0.6029,0.35 -1.0062,0.497 -0.4032,0.148 -0.8912,0.262 -1.4376,0.41 -0.4899,0.145 -1.0062,0.204 -1.6393,0.262 l -1.6959,0.145 c -1.43949,0.02 -2.87126,-0.217 -4.2301,-0.7 C 5.40328,118.2 4.22422,117.498 3.1938,116.603 2.18152,115.586 1.39625,114.361 0.89125,113.01 0.325975,111.551 0,109.911 0,107.899 c 0,-1.46 0.143207,-2.774 0.489909,-3.941 0.258143,-1.147 0.689631,-2.218 1.237951,-3.098 0.54831,-0.8803 1.13055,-1.6646 1.84091,-2.2958 0.68089,-0.6009 1.43437,-1.1113 2.24226,-1.5189 0.80457,-0.4093 1.6393,-0.7001 2.44576,-0.9047 l 2.53241,-0.2334 z m 11.4223,-4.5565 v -4.0897 h 3.5801 v 4.0897 z m 0.0565,27.4271 V 96.5614 h 3.5801 v 22.2736 z m 10.9626,0.019 V 84.9062 h 3.5801 V 118.835 Z M 44.1103,91.3909 v -4.0897 h 3.5801 v 4.0897 z m 0.0565,27.4271 V 96.5614 h 3.5801 v 22.2736 z m 19.4983,0.574 c -1.0267,0.001 -2.0502,-0.116 -3.0506,-0.351 -0.8338,-0.24 -1.6355,-0.583 -2.3874,-1.021 -0.6896,-0.497 -1.2945,-0.964 -1.7523,-1.664 -0.5002,-0.614 -0.8836,-1.317 -1.1306,-2.074 -0.2016,-0.574 -0.3448,-1.147 -0.4899,-1.869 l -0.1432,-2.219 V 96.5843 h 3.5801 v 13.6097 c 0,1.257 0.1432,2.296 0.4899,3.099 0.3448,0.964 0.9496,1.664 1.7523,2.219 0.8027,0.555 1.8994,0.819 3.1354,0.819 1.3529,0 2.4458,-0.262 3.2786,-0.905 0.8065,-0.612 1.4377,-1.373 1.7524,-2.423 0.2581,-0.76 0.4032,-1.722 0.4032,-2.832 V 96.5518 h 3.5801 v 13.6692 c 4e-4,0.694 -0.0474,1.387 -0.1432,2.074 -0.0561,0.609 -0.1917,1.208 -0.4032,1.781 -0.2582,0.759 -0.6897,1.459 -1.1306,2.132 -0.4899,0.613 -1.0929,1.148 -1.7524,1.665 -0.6896,0.497 -1.496,0.818 -2.4457,1.109 -1.0229,0.276 -2.0771,0.414 -3.1354,0.41 z m 33.6056,-0.574 h -3.5801 v -14.33 c 0.0029,-0.84 -0.1132,-1.676 -0.3448,-2.483 -0.2016,-0.7 -0.4899,-1.256 -0.8913,-1.664 -0.4056,-0.4221 -0.8959,-0.7509 -1.4376,-0.9639 -0.5653,-0.2046 -1.1306,-0.262 -1.841,-0.262 -1.2944,0 -2.4457,0.35 -3.4821,1.0219 -1.0061,0.7 -1.986,1.664 -2.7886,2.892 V 118.86 H 79.3383 V 96.5614 h 2.7887 l 0.6896,3.0988 h 0.0565 l 1.2945,-1.4595 c 0.4899,-0.4093 1.0062,-0.8187 1.5545,-1.1477 0.5874,-0.358 1.2292,-0.6146 1.8993,-0.7594 0.6897,-0.2047 1.4377,-0.2621 2.2611,-0.2621 1.6393,0 2.9922,0.4094 4.0851,1.1477 1.0929,0.8188 1.8993,1.8689 2.5324,3.2428 h 0.0566 c 0.9496,-1.3739 2.1009,-2.4833 3.3351,-3.2428 1.2343,-0.7594 2.7323,-1.1477 4.3453,-1.1477 0.748,0 1.554,0.1454 2.446,0.3501 0.891,0.2047 1.639,0.6121 2.387,1.1477 0.748,0.5356 1.294,1.3734 1.752,2.4236 0.49,1.0211 0.748,2.3371 0.748,4.0021 v 14.926 h -3.452 V 104.54 c 0.003,-0.84 -0.113,-1.676 -0.345,-2.483 -0.201,-0.7 -0.489,-1.257 -0.891,-1.664 -0.405,-0.4224 -0.896,-0.7512 -1.437,-0.9642 -0.566,-0.2047 -1.131,-0.2621 -1.841,-0.2621 -1.295,0 -2.446,0.3501 -3.482,1.0213 -1.0066,0.7 -1.9865,1.664 -2.8494,2.892 z"
         fill="#141a1f"
         id="path163" />
    </g>
  </g>
</svg>
